#!OML:ASF F:\VICON\USERDATA\Patient Classification 1\PLAYGROUND\JustinFriday\JustinFriday.ASF
:FULLY-SPECIFIED
:DEGREES
4088
root -12.1601 17.8181 10.7714 254.431 85.0991 -93.4419
lowerback 18.7233 1.22332 1.16816
upperback -2.65484 1.76337 -1.2006
thorax -13.4884 0.664919 -2.54189
lowerneck 18.2555 -16.7343 -6.3711
upperneck 0.149697 -22.8054 10.8373
head -0.740106 -11.7775 5.14851
rclavicle 2.44505e-014 -7.95139e-015
rhumerus 53.6492 -12.5938 -72.4335
rradius 95.6212
rwrist 15.2386
rhand -10.2555 -376.234
rfingers 7.12502
rthumb 15.7376 -405.614
lclavicle 2.44505e-014 -7.95139e-015
lhumerus 61.0162 -4.23313 66.8903
lradius 92.8611
lwrist -20.8532
lhand -2.25645 -7.75432
lfingers 7.12502
lthumb 23.4274 20.8396
rfemur -4.83208 -8.70008 19.2517
rtibia 66.7073
rfoot -6.65358 -8.64192
rtoes 12.4541
lfemur 0.201106 3.72291 -7.55815
ltibia 61.1083
lfoot -6.05509 -2.97034
ltoes 1.93059
4089
root -12.3192 17.8525 10.781 253.463 85.3073 -94.9063
lowerback 18.79 1.27912 0.875052
upperback -2.66159 1.76354 -1.24803
thorax -13.543 0.684469 -2.431
lowerneck 18.8895 -17.0867 -6.41046
upperneck -0.521623 -23.2472 11.0987
head -0.956156 -12.0307 5.3209
rclavicle -1.33186e-014 1.59028e-014
rhumerus 53.4775 -12.6171 -72.4883
rradius 95.8441
rwrist 15.2149
rhand -10.4917 -376.263
rfingers 7.12502
rthumb 15.5101 -405.661
lclavicle -1.33186e-014 1.59028e-014
lhumerus 60.8839 -3.888 65.377
lradius 93.2153
lwrist -19.7298
lhand -3.2452 -6.65088
lfingers 7.12502
lthumb 22.4786 22.0609
rfemur -4.69346 -8.49976 19.1381
rtibia 66.2935
rfoot -6.17262 -8.35587
rtoes 14.9308
lfemur 0.441363 3.96982 -7.71232
ltibia 60.4402
lfoot -4.5554 -3.43309
ltoes 2.04308
4090
root -12.4811 17.8792 10.7886 251.838 85.4986 -96.9741
lowerback 18.9231 1.3114 0.546504
upperback -2.57738 1.72208 -1.31603
thorax -13.5331 0.688727 -2.31035
lowerneck 19.9588 -18.0276 -5.85676
upperneck -1.75582 -24.3089 11.1867
head -1.42741 -12.5985 5.46817
rclavicle -1.23246e-014 6.36111e-015
rhumerus 53.533 -12.5443 -72.4795
rradius 95.9014
rwrist 15.157
rhand -11.1477 -376.513
rfingers 7.12502
rthumb 14.8782 -405.958
lclavicle -1.23246e-014 6.36111e-015
lhumerus 61.0255 -4.29306 67.7167
lradius 92.7527
lwrist -21.4218
lhand -2.18245 -8.73995
lfingers 7.12502
lthumb 23.4984 19.8449
rfemur -4.52927 -8.45158 19.0106
rtibia 65.8558
rfoot -5.86178 -8.16216
rtoes 15.6692
lfemur 0.697267 3.8333 -8.0189
ltibia 59.7066
lfoot -2.90787 -3.88966
ltoes 4.2806
4091
root -12.6392 17.9078 10.794 248.865 85.5828 -100.551
lowerback 18.8773 1.3294 0.230824
upperback -2.54595 1.67353 -1.30398
thorax -13.4808 0.692691 -2.09983
lowerneck 19.5047 -18.0463 -5.60656
upperneck -2.02397 -24.2602 11.3103
head -1.46405 -12.5772 5.44843
rclavicle 8.74653e-015 1.27222e-014
rhumerus 53.5864 -12.5093 -72.4896
rradius 95.8875
rwrist 15.3064
rhand -11.1176 -375.976
rfingers 7.12502
rthumb 14.9072 -405.42
lclavicle 8.74653e-015 1.27222e-014
lhumerus 61.0246 -3.59987 65.0038
lradius 93.02
lwrist -19.9315
lhand -3.81736 -7.07455
lfingers 7.12502
lthumb 21.9293 21.7026
rfemur -4.53985 -8.49238 19.0017
rtibia 65.3748
rfoot -4.72701 -7.81078
rtoes 6.6462
lfemur 0.692484 3.32398 -8.49297
ltibia 58.9352
lfoot -1.67513 -3.44118
ltoes 3.66597
4092
root -12.7907 17.949 10.7992 245.979 85.5987 -104.062
lowerback 18.7671 1.34518 0.0279258
upperback -2.5899 1.65991 -1.19466
thorax -13.4766 0.707112 -1.85479
lowerneck 19.1536 -17.892 -5.9105
upperneck -1.95989 -24.1271 11.4391
head -1.35899 -12.5109 5.47263
rclavicle -5.66536e-015 3.4191e-014
rhumerus 53.5117 -12.497 -72.5271
rradius 95.9354
rwrist 15.5375
rhand -10.6687 -375.078
rfingers 7.12502
rthumb 15.3396 -404.489
lclavicle -5.66536e-015 3.4191e-014
lhumerus 60.8277 -4.51279 68.2429
lradius 92.9248
lwrist -21.888
lhand -2.56544 -8.42695
lfingers 7.12502
lthumb 23.131 20.2044
rfemur -4.51019 -8.52075 19.0533
rtibia 64.7875
rfoot -4.68673 -7.26841
rtoes 6.50101
lfemur 0.627309 3.30432 -8.63304
ltibia 58.1104
lfoot -0.640643 -3.36271
ltoes 0.341027
4093
root -12.9432 17.9842 10.7986 246.423 85.1994 -104.165
lowerback 18.6932 1.25383 0.541526
upperback -2.57947 1.66554 -1.13466
thorax -13.4072 0.673764 -2.07854
lowerneck 19.4787 -18.1628 -5.79491
upperneck -2.46848 -24.427 11.6301
head -1.52006 -12.6832 5.57743
rclavicle 5.46658e-015 -2.54444e-014
rhumerus 53.4366 -12.6142 -72.4161
rradius 95.9909
rwrist 15.2366
rhand -10.8782 -375.115
rfingers 7.12502
rthumb 15.1378 -404.541
lclavicle 5.46658e-015 -2.54444e-014
lhumerus 60.9257 -3.89287 65.183
lradius 93.0664
lwrist -20.0966
lhand -4.39346 -6.48717
lfingers 7.12502
lthumb 21.3761 22.3537
rfemur -4.42562 -8.49211 19.6889
rtibia 64.1163
rfoot -4.64135 -6.99033
rtoes 6.99025
lfemur 0.677119 3.31361 -8.23255
ltibia 57.2495
lfoot 0.166681 -3.81749
ltoes -0.750657
4094
root -13.0941 18.016 10.7985 246.647 84.9508 -104.535
lowerback 18.5695 1.19468 0.880383
upperback -2.56182 1.66748 -1.11519
thorax -13.3043 0.651393 -2.24542
lowerneck 19.3252 -18.2555 -5.71993
upperneck -2.69668 -24.5158 11.7991
head -1.5473 -12.7378 5.61391
rclavicle -2.03754e-014 -2.38542e-015
rhumerus 53.3764 -12.7815 -72.2428
rradius 96.0208
rwrist 14.8552
rhand -11.4681 -375.408
rfingers 7.12502
rthumb 14.5696 -404.876
lclavicle -2.03754e-014 -2.38542e-015
lhumerus 60.8797 -4.43393 67.5315
lradius 92.5151
lwrist -21.717
lhand -3.62275 -8.62853
lfingers 7.12502
lthumb 22.1162 20.1266
rfemur -4.4244 -8.46186 20.1868
rtibia 63.3455
rfoot -4.18061 -6.516
rtoes 5.09057
lfemur 0.690436 3.34939 -8.01127
ltibia 56.3795
lfoot 0.690805 -4.31634
ltoes -0.0758095
4095
root -13.2433 18.0499 10.8042 244.08 85.1749 -107.724
lowerback 18.4298 1.26019 0.487577
upperback -2.58 1.67713 -1.00227
thorax -13.2571 0.691971 -1.89379
lowerneck 19.0419 -17.875 -6.51735
upperneck -3.06638 -24.1555 12.4283
head -1.49048 -12.5894 5.85604
rclavicle -2.03754e-014 -6.36111e-015
rhumerus 53.5967 -12.3292 -72.1873
rradius 95.7237
rwrist 15.1486
rhand -11.8471 -374.964
rfingers 7.12502
rthumb 14.2044 -404.458
lclavicle -2.03754e-014 -6.36111e-015
lhumerus 60.7386 -3.69416 65.3563
lradius 92.9448
lwrist -20.2295
lhand -4.69513 -6.99976
lfingers 7.12502
lthumb 21.0863 21.8737
rfemur -4.46043 -8.3441 20.0187
rtibia 62.6338
rfoot -4.21629 -5.68732
rtoes 7.83455
lfemur 0.672046 3.15073 -8.50275
ltibia 55.4245
lfoot 0.763649 -4.44637
ltoes -1.81896
4096
root -13.4009 18.058 10.8093 242.056 85.2018 -110.182
lowerback 18.5085 1.3132 0.253471
upperback -2.56453 1.71421 -0.837366
thorax -13.2968 0.734266 -1.58904
lowerneck 19.6407 -18.1012 -6.9134
upperneck -4.0571 -24.4846 12.9125
head -1.73733 -12.8019 6.1489
rclavicle 2.61402e-014 -1.11319e-014
rhumerus 53.597 -12.3737 -71.8892
rradius 95.6394
rwrist 14.7522
rhand -12.0177 -374.324
rfingers 7.12502
rthumb 14.0399 -403.83
lclavicle 2.61402e-014 -1.11319e-014
lhumerus 60.6451 -4.1126 67.7009
lradius 92.5324
lwrist -21.6377
lhand -3.92716 -7.71604
lfingers 7.12502
lthumb 21.8239 21.0734
rfemur -4.47368 -8.59809 20.1499
rtibia 61.7896
rfoot -3.14714 -5.79382
rtoes -1.87951
lfemur 0.718556 2.91258 -8.75381
ltibia 54.5759
lfoot 0.279976 -4.68838
ltoes -3.76007
4097
root -13.5454 18.1054 10.818 241.211 85.1358 -111.41
lowerback 18.6975 1.30589 0.2373
upperback -2.54881 1.69667 -0.869725
thorax -13.3902 0.724565 -1.61668
lowerneck 19.5628 -18.1246 -7.26853
upperneck -4.04118 -24.5659 13.5238
head -1.59591 -12.8743 6.3346
rclavicle 2.73329e-014 -1.51076e-014
rhumerus 53.6388 -12.4128 -72.1545
rradius 95.562
rwrist 14.6817
rhand -12.2151 -374.085
rfingers 7.12502
rthumb 13.8497 -403.604
lclavicle 2.73329e-014 -1.51076e-014
lhumerus 60.9249 -3.82276 66.1579
lradius 92.1512
lwrist -20.7057
lhand -4.87554 -6.60878
lfingers 7.12502
lthumb 20.913 22.2839
rfemur -4.29604 -8.07457 20.3159
rtibia 61.1123
rfoot -4.49548 -5.01684
rtoes 12.1223
lfemur 0.921305 3.01172 -8.69497
ltibia 53.6338
lfoot -0.445427 -5.15762
ltoes -1.49263
4098
root -13.6962 18.1214 10.8191 240.101 85.07 -112.989
lowerback 18.7751 1.21784 0.369559
upperback -2.58062 1.59668 -0.973178
thorax -13.469 0.661861 -1.78158
lowerneck 19.4483 -18.5778 -6.29512
upperneck -4.31353 -24.9488 12.9868
head -1.79983 -13.0425 6.1018
rclavicle -4.01048e-014 -9.54166e-015
rhumerus 53.666 -12.3004 -72.421
rradius 95.5291
rwrist 14.8124
rhand -12.3582 -374.417
rfingers 7.12502
rthumb 13.7118 -403.946
lclavicle -4.01048e-014 -9.54166e-015
lhumerus 60.9445 -4.48221 68.5432
lradius 91.5801
lwrist -22.347
lhand -3.92964 -9.27042
lfingers 7.12502
lthumb 21.8215 19.5193
rfemur -4.3569 -7.92604 20.5351
rtibia 60.374
rfoot -3.28042 -4.30892
rtoes 3.6985
lfemur 0.912272 2.78483 -8.8314
ltibia 52.8478
lfoot -1.19077 -5.20574
ltoes 0.932661
4099
root -13.8459 18.1283 10.817 238.786 84.9283 -114.764
lowerback 18.7441 1.12444 0.620697
upperback -2.61102 1.53308 -0.951363
thorax -13.4819 0.613627 -1.88089
lowerneck 19.1573 -18.8185 -5.77393
upperneck -4.39923 -25.1858 12.3226
head -1.90476 -13.1218 5.85242
rclavicle -6.85807e-015 2.54444e-014
rhumerus 53.6942 -12.2049 -72.2758
rradius 95.4053
rwrist 14.7382
rhand -12.6096 -374.936
rfingers 7.12502
rthumb 13.4695 -404.481
lclavicle -6.85807e-015 2.54444e-014
lhumerus 60.8473 -3.88827 65.802
lradius 91.7254
lwrist -20.8374
lhand -5.63069 -8.13059
lfingers 7.12502
lthumb 20.1873 20.8405
rfemur -4.45471 -7.75998 20.8402
rtibia 59.6536
rfoot -2.51145 -3.96122
rtoes 2.4972
lfemur 0.811267 2.47537 -8.93148
ltibia 52.0951
lfoot -1.8158 -5.25155
ltoes 1.60159
4100
root -13.985 18.1615 10.8209 237.253 84.8136 -116.773
lowerback 18.7062 1.1173 0.718048
upperback -2.58829 1.5491 -0.929616
thorax -13.4305 0.615489 -1.91492
lowerneck 19.3121 -18.6754 -6.89222
upperneck -4.7152 -25.1467 13.9369
head -1.69029 -13.1952 6.4171
rclavicle 1.56046e-014 1.59028e-015
rhumerus 53.9162 -12.2286 -72.1905
rradius 95.0662
rwrist 14.6613
rhand -12.9084 -374.868
rfingers 7.12502
rthumb 13.1815 -404.432
lclavicle 1.56046e-014 1.59028e-015
lhumerus 60.9327 -4.20864 66.6962
lradius 91.3285
lwrist -21.4954
lhand -5.71538 -8.76845
lfingers 7.12502
lthumb 20.1059 20.2112
rfemur -4.47016 -7.46905 21.0818
rtibia 58.7936
rfoot -1.9724 -3.71097
rtoes 5.68027
lfemur 0.623492 2.75965 -8.79399
ltibia 51.3734
lfoot -2.71947 -5.79757
ltoes -0.262126
4101
root -14.1232 18.1869 10.8265 236.797 84.658 -117.816
lowerback 18.5936 1.12459 0.812497
upperback -2.56727 1.57934 -0.938412
thorax -13.3355 0.623479 -1.98343
lowerneck 19.2573 -19.4924 -4.55853
upperneck -6.35644 -25.7342 12.0566
head -2.64431 -13.4131 5.83168
rclavicle 4.57205e-015 1.59028e-014
rhumerus 54.138 -12.3326 -72.1102
rradius 94.6884
rwrist 14.6098
rhand -13.2185 -374.623
rfingers 7.12502
rthumb 12.8825 -404.205
lclavicle 4.57205e-015 1.59028e-014
lhumerus 61.2735 -4.50292 67.3258
lradius 90.7532
lwrist -21.9878
lhand -5.90235 -9.25757
lfingers 7.12502
lthumb 19.9262 19.7408
rfemur -4.6817 -7.36161 21.4132
rtibia 57.8569
rfoot -1.24803 -3.54008
rtoes 5.28396
lfemur 0.290585 3.01614 -8.62609
ltibia 50.6649
lfoot -3.45851 -6.07113
ltoes -2.08035
4102
root -14.2591 18.203 10.8325 237.432 84.5335 -117.768
lowerback 18.4355 1.13728 0.886032
upperback -2.60481 1.62071 -0.868419
thorax -13.284 0.640869 -1.95487
lowerneck 19.2979 -18.485 -8.30009
upperneck -5.30222 -25.0971 15.7774
head -1.46877 -13.2753 7.07589
rclavicle -1.01877e-015 -1.74931e-014
rhumerus 54.2043 -12.2836 -72.0276
rradius 94.3612
rwrist 14.6533
rhand -13.614 -374.425
rfingers 7.12502
rthumb 12.5013 -404.031
lclavicle -1.01877e-015 -1.74931e-014
lhumerus 61.379 -4.13558 65.48
lradius 90.761
lwrist -20.8731
lhand -7.14766 -7.74823
lfingers 7.12502
lthumb 18.7288 21.3702
rfemur -4.91994 -7.29009 21.7607
rtibia 56.8817
rfoot -0.595281 -3.4324
rtoes 4.73236
lfemur 0.0347513 3.30891 -8.46888
ltibia 49.8478
lfoot -3.68873 -6.15253
ltoes -2.2747
